<?xml version="1.0" encoding="iso-8859-1"?>
<!-- Generator: Adobe Illustrator 18.0.0, SVG Export Plug-In . SVG Version: 6.00 Build 0)  -->
<!DOCTYPE svg PUBLIC "-//W3C//DTD SVG 1.1//EN" "http://www.w3.org/Graphics/SVG/1.1/DTD/svg11.dtd">
<svg version="1.1" id="Capa_1" xmlns="http://www.w3.org/2000/svg" xmlns:xlink="http://www.w3.org/1999/xlink" x="0px" y="0px"
	 viewBox="0 0 212.975 212.975" style="enable-background:new 0 0 212.975 212.975;" xml:space="preserve">
<g>
	<rect x="38.617" y="32.966" width="56.742" height="12"/>
	<path d="M171.847,46.469c1.971,0,3.9-0.8,5.301-2.199c1.399-1.4,2.199-3.33,2.199-5.301c0-1.979-0.8-3.91-2.199-5.31
		c-1.4-1.39-3.33-2.19-5.301-2.19c-1.98,0-3.909,0.801-5.31,2.19c-1.39,1.399-2.19,3.33-2.19,5.31c0,1.971,0.801,3.9,2.19,5.301
		C167.938,45.669,169.867,46.469,171.847,46.469z"/>
	<path d="M144.847,46.469c1.971,0,3.9-0.8,5.301-2.199c1.399-1.4,2.199-3.33,2.199-5.301c0-1.979-0.8-3.91-2.199-5.31
		c-1.4-1.39-3.33-2.19-5.301-2.19c-1.979,0-3.909,0.801-5.31,2.19c-1.39,1.399-2.19,3.33-2.19,5.31c0,1.971,0.801,3.9,2.19,5.301
		C140.938,45.669,142.867,46.469,144.847,46.469z"/>
	<path d="M117.837,46.469c1.98,0,3.91-0.8,5.311-2.199c1.399-1.4,2.199-3.33,2.199-5.301c0-1.97-0.8-3.91-2.199-5.31
		c-1.4-1.39-3.33-2.19-5.311-2.19c-1.97,0-3.899,0.801-5.3,2.19c-1.39,1.399-2.19,3.33-2.19,5.31c0,1.971,0.801,3.9,2.19,5.301
		C113.938,45.669,115.867,46.469,117.837,46.469z"/>
	<path d="M0,8.181V166.55h49.482v38.243l71.763-38.243h91.73V8.181H0z M197.975,23.181v31.57H15v-31.57H197.975z M117.497,151.55
		l-53.015,28.253V151.55H15V69.751h182.975v81.799H117.497z"/>
	<rect x="42.65" y="90.394" width="127.674" height="12"/>
	<rect x="42.65" y="116.906" width="127.674" height="12"/>
</g>
<g>
</g>
<g>
</g>
<g>
</g>
<g>
</g>
<g>
</g>
<g>
</g>
<g>
</g>
<g>
</g>
<g>
</g>
<g>
</g>
<g>
</g>
<g>
</g>
<g>
</g>
<g>
</g>
<g>
</g>
</svg>
