<?xml version="1.0" encoding="iso-8859-1"?>
<!-- Generator: Adobe Illustrator 19.0.0, SVG Export Plug-In . SVG Version: 6.00 Build 0)  -->
<svg version="1.1" id="Layer_1" xmlns="http://www.w3.org/2000/svg" xmlns:xlink="http://www.w3.org/1999/xlink" x="0px" y="0px"
	 viewBox="0 0 324.473 324.473" style="enable-background:new 0 0 324.473 324.473;" xml:space="preserve">
<g>
	<path style="fill:#BFA070;" d="M316.331,68.616c0-12.792-10.467-23.259-23.259-23.259H60.476c-12.793,0-23.26,10.467-23.26,23.259
		v232.596c0,12.793,10.467,23.261,23.26,23.261h232.596c12.793,0,23.259-10.468,23.259-23.261V68.616z"/>
	<path style="fill:#DFCAA3;" d="M287.257,68.616c0-12.792-10.467-23.259-23.26-23.259H31.401c-12.792,0-23.259,10.467-23.259,23.259
		v232.596c0,12.793,10.467,23.261,23.259,23.261h232.596c12.793,0,23.26-10.468,23.26-23.261V68.616z"/>
	<g>
		<rect x="43.031" y="80.246" style="fill:#DCDDDE;" width="209.336" height="209.337"/>
		<rect x="43.031" y="80.246" style="fill:#D16A70;" width="209.336" height="51.171"/>
		<rect x="20.934" y="80.246" style="fill:#FFFFFF;" width="209.337" height="209.337"/>
		<rect x="20.934" y="80.246" style="fill:#FF8189;" width="209.337" height="51.171"/>
		<g>
			<path style="fill:#333E48;" d="M89.589,252.447c-2.974-2.148-5.122-5.453-5.122-9.749c0-6.609,5.453-12.227,12.062-12.227
				c2.974,0,4.957,0.826,6.94,2.313c7.104,5.122,13.879,7.436,21.975,7.436c10.74,0,18.671-5.783,18.671-16.027v-0.331
				c0-9.913-8.427-15.696-20.488-15.696c-9.749,0-14.045,2.975-17.515,2.975c-3.635,0-6.444-1.487-11.566-5.123
				c-3.469-2.479-4.957-5.948-4.626-10.243l2.313-39.16c0.331-6.113,5.123-10.905,11.236-10.905h50.229
				c6.114,0,11.236,5.122,11.236,11.236c0,6.113-5.122,11.069-11.236,11.069h-38.994l-1.322,19.994
				c4.627-1.157,8.757-1.983,15.201-1.983c22.802,0,40.481,10.904,40.481,37.012v0.331c0,24.452-17.679,39.984-43.125,39.984
				C109.912,263.352,98.841,259.056,89.589,252.447z"/>
		</g>
	</g>
	<path style="fill:#4C5B6B;" d="M85.379,0C51.4,0,23.756,27.643,23.756,61.624c0,16.458,6.409,31.935,18.048,43.574
		c2.271,2.272,5.247,3.407,8.225,3.407c2.975,0,5.952-1.136,8.222-3.406c4.542-4.541,4.543-11.904,0.002-16.446
		c-7.247-7.248-11.237-16.882-11.237-27.129c0-21.154,17.21-38.363,38.363-38.363c15.341,0,28.601,9.054,34.734,22.097h24.695
		C137.653,19.248,113.728,0,85.379,0z"/>
	<path style="fill:#3E4A57;" d="M159.577,0c-33.979,0-61.623,27.643-61.623,61.624c0,16.458,6.41,31.935,18.048,43.574
		c2.271,2.272,5.247,3.407,8.225,3.407c2.975,0,5.952-1.136,8.223-3.406c4.542-4.541,4.543-11.904,0.002-16.446
		c-7.247-7.248-11.237-16.882-11.237-27.129c0-21.154,17.21-38.363,38.364-38.363c15.34,0,28.601,9.054,34.734,22.097h24.694
		C211.85,19.248,187.925,0,159.577,0z"/>
	<path style="fill:#4C5B6B;" d="M233.774,0c-33.979,0-61.623,27.643-61.623,61.624c0,16.458,6.41,31.935,18.048,43.574
		c2.271,2.272,5.247,3.407,8.224,3.407c2.976,0,5.953-1.136,8.223-3.406c4.542-4.541,4.543-11.904,0.001-16.446
		c-7.246-7.248-11.237-16.882-11.237-27.129c0-21.154,17.21-38.363,38.364-38.363c15.341,0,28.601,9.054,34.734,22.097h24.694
		C286.047,19.248,262.123,0,233.774,0z"/>
</g>
<g>
</g>
<g>
</g>
<g>
</g>
<g>
</g>
<g>
</g>
<g>
</g>
<g>
</g>
<g>
</g>
<g>
</g>
<g>
</g>
<g>
</g>
<g>
</g>
<g>
</g>
<g>
</g>
<g>
</g>
</svg>
