<?xml version="1.0" encoding="iso-8859-1"?>
<!-- Generator: Adobe Illustrator 19.0.0, SVG Export Plug-In . SVG Version: 6.00 Build 0)  -->
<svg version="1.1" id="Layer_1" xmlns="http://www.w3.org/2000/svg" xmlns:xlink="http://www.w3.org/1999/xlink" x="0px" y="0px"
	 viewBox="0 0 416.804 416.804" style="enable-background:new 0 0 416.804 416.804;" xml:space="preserve">
<g>
	<circle style="fill:#2D4151;" cx="208.401" cy="146.821" r="146.821"/>
	<rect x="25.219" y="257.671" style="fill:#F9D585;" width="366.367" height="159.133"/>
	<rect x="74.566" y="255.671" style="fill:#DDB972;" width="91.054" height="31.5"/>
	<rect x="243.617" y="255.671" style="fill:#DDB972;" width="106.187" height="31.5"/>
	<circle style="fill:#F9C032;" cx="208.401" cy="146.821" r="110.851"/>
	<path style="fill:#ED4C58;" d="M213.91,239.522c-0.585-4.15,2.308-7.986,6.447-8.571l0,0c4.15-0.585,7.986,2.308,8.571,6.458l0,0
		c0.585,4.139-2.308,7.975-6.447,8.56l0,0c-0.358,0.055-0.715,0.076-1.072,0.076l0,0C217.69,246.045,214.44,243.303,213.91,239.522z
		 M194.005,245.926c-4.15-0.596-7.032-4.442-6.426-8.592l0,0c0.596-4.139,4.443-7.021,8.582-6.426l0,0l0,0l0,0
		c4.15,0.596,7.032,4.443,6.426,8.593l0,0c-0.542,3.781-3.782,6.501-7.498,6.501l0,0C194.73,246.002,194.363,245.98,194.005,245.926
		z M239.807,234.235c-1.734-3.814-0.054-8.311,3.76-10.045l0,0l0,0l0,0c3.814-1.734,8.311-0.054,10.045,3.76l0,0
		c1.734,3.814,0.054,8.311-3.76,10.045v0.011c-1.018,0.455-2.091,0.683-3.143,0.683l0,0
		C243.826,238.688,241.074,237.03,239.807,234.235z M166.656,237.864c-3.803-1.744-5.472-6.252-3.727-10.055l0,0
		c1.755-3.814,6.252-5.483,10.056-3.727l0,0c3.814,1.744,5.482,6.252,3.727,10.055l0,0c-1.268,2.785-4.02,4.421-6.892,4.421l0,0
		C168.757,238.558,167.686,238.33,166.656,237.864z M263.135,221.838c-2.731-3.174-2.383-7.964,0.78-10.694l0,0
		c3.174-2.742,7.964-2.395,10.705,0.78l0,0c2.741,3.164,2.384,7.954-0.78,10.695l0,0c-1.43,1.235-3.196,1.842-4.952,1.842l0,0
		C266.754,224.461,264.642,223.572,263.135,221.838z M142.72,222.402L142.72,222.402c-3.164-2.741-3.5-7.53-0.748-10.694l0,0
		c2.752-3.164,7.541-3.5,10.705-0.748l0,0l0,0l0,0c3.164,2.752,3.489,7.541,0.748,10.705l0,0c-1.506,1.723-3.608,2.6-5.732,2.6l0,0
		C145.927,224.266,144.161,223.659,142.72,222.402z M282.053,203.375c-3.51-2.265-4.529-6.967-2.254-10.478l0,0l0,0l0,0
		c2.276-3.522,6.978-4.529,10.489-2.253l0,0c3.522,2.275,4.529,6.967,2.254,10.488l0,0c-1.452,2.243-3.89,3.468-6.371,3.468l0,0
		C284.752,204.6,283.333,204.198,282.053,203.375z M124.084,200.861c-2.264-3.532-1.235-8.224,2.287-10.488l0,0
		c3.522-2.254,8.213-1.235,10.478,2.286l0,0c2.264,3.532,1.246,8.224-2.287,10.478l0,0c-1.268,0.823-2.687,1.214-4.085,1.214l0,0
		C127.974,204.35,125.536,203.115,124.084,200.861z M295.023,180.36c-4.02-1.192-6.317-5.407-5.125-9.427l0,0
		c1.181-4.02,5.407-6.317,9.416-5.125l0,0c4.02,1.181,6.317,5.407,5.136,9.416l0,0c-0.975,3.305-3.998,5.439-7.281,5.439l0,0
		C296.465,180.664,295.739,180.566,295.023,180.36z M112.263,174.921c-1.17-4.02,1.138-8.235,5.157-9.405l0,0
		c4.02-1.181,8.235,1.127,9.405,5.158l0,0c1.17,4.02-1.127,8.224-5.158,9.405l0,0c-0.704,0.206-1.42,0.303-2.124,0.303l0,0
		C116.261,180.382,113.227,178.226,112.263,174.921z M300.94,154.605c-4.193-0.011-7.585-3.413-7.574-7.595l0,0
		c0-0.033,0-0.065,0-0.087l0,0c0-0.033,0-0.065,0-0.098l0,0c0-4.193,3.392-7.585,7.585-7.585l0,0c4.193,0,7.585,3.392,7.585,7.585
		l0,0c0,0.054,0,0.12,0,0.185l0,0c0,0,0,0.011,0,0.022l0,0c-0.011,4.193-3.402,7.574-7.585,7.574l0,0
		C300.94,154.605,300.94,154.605,300.94,154.605z M115.849,154.301c-4.193,0-7.585-3.402-7.585-7.585l0,0
		c0.011-4.193,3.414-7.585,7.596-7.585l0,0c4.193,0.011,7.585,3.402,7.574,7.595l0,0
		C123.433,150.909,120.042,154.301,115.849,154.301L115.849,154.301L115.849,154.301z M289.953,122.889
		c-1.181-4.02,1.127-8.235,5.147-9.416l0,0c4.02-1.181,8.235,1.127,9.405,5.147l0,0c1.181,4.02-1.127,8.235-5.147,9.405l0,0
		c-0.704,0.216-1.419,0.314-2.135,0.314l0,0C293.951,128.34,290.918,126.194,289.953,122.889z M117.463,127.927
		c-4.02-1.181-6.317-5.396-5.136-9.416l0,0c1.181-4.02,5.397-6.317,9.416-5.136l0,0c4.02,1.181,6.317,5.396,5.136,9.416l0,0
		c-0.975,3.305-3.998,5.45-7.271,5.45l0,0C118.893,128.242,118.179,128.144,117.463,127.927z M279.898,100.904
		c-2.265-3.522-1.246-8.224,2.275-10.488l0,0c3.522-2.265,8.213-1.246,10.489,2.275l0,0c2.264,3.522,1.246,8.213-2.276,10.489l0,0
		c-1.268,0.813-2.687,1.203-4.096,1.203l0,0C283.798,104.382,281.35,103.158,279.898,100.904z M126.468,103.082
		c-3.522-2.265-4.54-6.956-2.264-10.478l0,0c2.275-3.522,6.967-4.541,10.488-2.265l0,0c3.522,2.265,4.529,6.967,2.254,10.489l0,0
		c-1.452,2.243-3.89,3.467-6.371,3.467l0,0C129.164,104.295,127.735,103.905,126.468,103.082z M264.056,82.624
		c-3.164-2.752-3.5-7.541-0.759-10.705l0,0c2.752-3.164,7.541-3.5,10.706-0.758l0,0c3.164,2.752,3.5,7.541,0.758,10.705l0,0
		c-1.506,1.723-3.608,2.612-5.732,2.612l0,0C267.264,84.478,265.497,83.871,264.056,82.624z M142.113,81.79
		c-2.741-3.164-2.395-7.953,0.769-10.694l0,0c3.164-2.742,7.953-2.406,10.705,0.769l0,0c2.742,3.164,2.395,7.953-0.769,10.695l0,0
		c-1.441,1.246-3.207,1.853-4.963,1.853l0,0C145.732,84.413,143.619,83.524,142.113,81.79z M243.729,69.524
		c-3.803-1.744-5.482-6.241-3.738-10.055l0,0c1.744-3.804,6.241-5.483,10.055-3.738l0,0c3.814,1.744,5.483,6.252,3.738,10.056l0,0
		c-1.279,2.785-4.02,4.432-6.902,4.432l0,0C245.83,70.218,244.757,69.991,243.729,69.524z M163.102,65.732
		c-1.734-3.803-0.054-8.311,3.76-10.044l0,0c3.804-1.744,8.3-0.065,10.044,3.749l0,0c1.734,3.814,0.065,8.311-3.749,10.044l0,0
		c-1.018,0.466-2.091,0.694-3.142,0.694l0,0C167.132,70.175,164.38,68.528,163.102,65.732z M220.551,62.72
		c-4.15-0.596-7.032-4.443-6.436-8.582l0,0c0.585-4.15,4.432-7.032,8.582-6.437l0,0c4.15,0.585,7.021,4.432,6.436,8.582l0,0
		c-0.542,3.781-3.792,6.512-7.509,6.512l0,0C221.277,62.796,220.91,62.763,220.551,62.72z M187.774,56.262
		c-0.585-4.15,2.297-7.986,6.447-8.582l0,0c4.15-0.585,7.986,2.297,8.571,6.447l0,0c0.585,4.15-2.297,7.986-6.447,8.571l0,0
		c0,0,0,0,0.011,0l0,0c-0.368,0.054-0.726,0.076-1.084,0.076l0,0C191.555,62.774,188.316,60.043,187.774,56.262z"/>
	<rect x="33.951" y="228.671" style="fill:#D34254;" width="348.902" height="22.813"/>
	<rect x="25.219" y="262.218" style="fill:#F9C032;" width="57.495" height="154.586"/>
	<rect x="334.09" y="262.218" style="fill:#F9C032;" width="57.495" height="154.586"/>
	<rect x="157.471" y="262.218" style="fill:#F9C032;" width="101.86" height="154.586"/>
	<rect x="25.219" y="391.16" style="fill:#D8A745;" width="57.495" height="25.644"/>
	<rect x="157.471" y="391.16" style="fill:#D8A745;" width="101.86" height="25.644"/>
	<rect x="334.09" y="391.16" style="fill:#D8A745;" width="57.495" height="25.644"/>
	<rect x="25.219" y="257.593" style="fill:#D8A745;" width="57.495" height="14.337"/>
	<rect x="157.471" y="257.593" style="fill:#D8A745;" width="101.86" height="14.337"/>
	<rect x="334.09" y="257.593" style="fill:#D8A745;" width="57.495" height="14.337"/>
	<rect x="88.4" y="297.975" style="fill:#D87F36;" width="63.929" height="118.829"/>
	<rect x="93.818" y="303.393" style="fill:#2D4151;" width="53.094" height="56.344"/>
	<rect x="264.746" y="297.975" style="fill:#D87F36;" width="63.929" height="118.829"/>
	<rect x="93.818" y="365.697" style="fill:#ED9648;" width="53.094" height="44.425"/>
	<rect x="270.164" y="303.393" style="fill:#2D4151;" width="53.094" height="56.344"/>
	<rect x="270.164" y="365.697" style="fill:#ED9648;" width="53.094" height="44.425"/>
	<rect x="173.186" y="278.471" style="fill:#FFFFFF;" width="70.431" height="95.352"/>
	<rect x="178.604" y="283.889" style="fill:#2D4151;" width="59.595" height="84.517"/>
	<circle style="fill:#F9C032;" cx="199.195" cy="326.689" r="13.544"/>
	<polygon style="fill:#ED4C58;" points="208.704,361.819 200.232,330.198 231.852,338.671 	"/>
	<circle style="fill:#3496F7;" cx="217.886" cy="304.748" r="5.689"/>
	<path style="opacity:0.2;fill:#FCFAFA;enable-background:new    ;" d="M234.977,289.346v75.099h-42.961
		C192.016,364.445,229.714,352.385,234.977,289.346z"/>
	<path style="opacity:0.2;fill:#FCFAFA;enable-background:new    ;" d="M143.958,307.766v48.011h-27.465
		C116.494,355.777,140.594,348.067,143.958,307.766z"/>
	<path style="opacity:0.2;fill:#FCFAFA;enable-background:new    ;" d="M318.952,307.766v48.011h-27.465
		C291.487,355.777,315.588,348.067,318.952,307.766z"/>
	<g>
		<circle style="fill:#2D4151;" cx="140.41" cy="380.867" r="4.876"/>
		<circle style="fill:#2D4151;" cx="276.395" cy="380.867" r="4.876"/>
	</g>
	<path style="fill:#ED4C58;" d="M391.59,134.527v8.506H25.221v-8.506c13.198,0,23.903-10.706,23.903-23.903h318.552
		C367.676,123.821,378.382,134.527,391.59,134.527z"/>
	<rect x="25.221" y="134.527" style="fill:#D34254;" width="366.369" height="12.645"/>
	<rect x="13.872" y="243.798" style="fill:#D89A2E;" width="389.061" height="18.42"/>
	<rect x="13.872" y="143.028" style="fill:#3496F7;" width="389.061" height="91.018"/>
	<rect x="24.707" y="153.864" style="fill:#2D4151;" width="367.39" height="69.347"/>
	<g>
		<path style="fill:#ED4C58;" d="M30.129,221.044c-0.216,0-0.433-0.022-0.639-0.065c-0.206-0.043-0.412-0.108-0.607-0.184
			c-0.195-0.087-0.39-0.184-0.563-0.304c-0.174-0.119-0.347-0.249-0.498-0.401c-0.141-0.151-0.282-0.314-0.401-0.498
			c-0.119-0.173-0.216-0.357-0.293-0.552c-0.087-0.195-0.151-0.401-0.195-0.607c-0.043-0.217-0.054-0.423-0.054-0.639
			c0-0.856,0.347-1.69,0.943-2.297c0.152-0.152,0.325-0.293,0.498-0.401c0.174-0.119,0.368-0.227,0.563-0.303
			c0.195-0.076,0.401-0.141,0.607-0.184c0.423-0.087,0.856-0.087,1.268,0c0.206,0.043,0.412,0.108,0.607,0.184
			s0.39,0.184,0.563,0.303c0.174,0.108,0.347,0.249,0.498,0.401c0.607,0.607,0.953,1.441,0.953,2.297
			c0,0.216-0.022,0.422-0.065,0.639c-0.043,0.206-0.108,0.412-0.184,0.607c-0.087,0.195-0.184,0.379-0.303,0.552
			c-0.12,0.185-0.249,0.347-0.401,0.498c-0.152,0.152-0.325,0.282-0.498,0.401c-0.174,0.12-0.368,0.217-0.563,0.304
			c-0.195,0.076-0.401,0.141-0.607,0.184S30.334,221.044,30.129,221.044z"/>
		<path style="fill:#ED4C58;" d="M26.879,203.165c0-1.799,1.452-3.251,3.251-3.251l0,0c1.788,0,3.251,1.452,3.251,3.251l0,0
			c0,1.798-1.463,3.251-3.251,3.251l0,0C28.331,206.416,26.879,204.963,26.879,203.165z M26.879,188.537
			c0-1.799,1.452-3.251,3.251-3.251l0,0c1.788,0,3.251,1.452,3.251,3.251l0,0c0,1.798-1.463,3.251-3.251,3.251l0,0
			C28.331,191.788,26.879,190.335,26.879,188.537z M26.879,173.909c0-1.799,1.452-3.251,3.251-3.251l0,0
			c1.788,0,3.251,1.452,3.251,3.251l0,0c0,1.798-1.463,3.251-3.251,3.251l0,0C28.331,177.16,26.879,175.708,26.879,173.909z"/>
		<path style="fill:#ED4C58;" d="M30.129,162.532c-0.216,0-0.433-0.022-0.639-0.065c-0.206-0.043-0.412-0.108-0.607-0.184
			c-0.195-0.087-0.39-0.184-0.563-0.304c-0.174-0.119-0.347-0.249-0.498-0.401c-0.596-0.606-0.943-1.441-0.943-2.297
			s0.347-1.69,0.943-2.297c0.152-0.152,0.325-0.293,0.498-0.401c0.174-0.119,0.368-0.216,0.563-0.303
			c0.195-0.076,0.401-0.141,0.607-0.184c0.423-0.087,0.856-0.087,1.268,0c0.206,0.043,0.412,0.108,0.607,0.184
			c0.195,0.087,0.39,0.184,0.563,0.303c0.174,0.108,0.347,0.249,0.498,0.401c0.607,0.607,0.953,1.441,0.953,2.297
			s-0.347,1.69-0.953,2.297c-0.152,0.152-0.325,0.282-0.498,0.401c-0.174,0.12-0.368,0.217-0.563,0.304
			c-0.195,0.076-0.401,0.141-0.607,0.184C30.552,162.51,30.334,162.532,30.129,162.532z"/>
		<path style="fill:#ED4C58;" d="M369.171,159.281c0-1.799,1.452-3.251,3.251-3.251l0,0c1.788,0,3.24,1.452,3.24,3.251l0,0
			c0,1.798-1.452,3.251-3.24,3.251l0,0C370.622,162.532,369.171,161.08,369.171,159.281z M354.901,159.281
			c0-1.799,1.463-3.251,3.251-3.251l0,0c1.799,0,3.251,1.452,3.251,3.251l0,0c0,1.798-1.452,3.251-3.251,3.251l0,0
			C356.364,162.532,354.901,161.08,354.901,159.281z M340.642,159.281c0-1.799,1.452-3.251,3.251-3.251l0,0
			c1.798,0,3.251,1.452,3.251,3.251l0,0c0,1.798-1.452,3.251-3.251,3.251l0,0C342.094,162.532,340.642,161.08,340.642,159.281z
			 M326.382,159.281c0-1.799,1.452-3.251,3.251-3.251l0,0c1.788,0,3.251,1.452,3.251,3.251l0,0c0,1.798-1.463,3.251-3.251,3.251l0,0
			C327.834,162.532,326.382,161.08,326.382,159.281z M312.122,159.281c0-1.799,1.452-3.251,3.24-3.251l0,0
			c1.798,0,3.261,1.452,3.261,3.251l0,0c0,1.798-1.463,3.251-3.261,3.251l0,0C313.575,162.532,312.122,161.08,312.122,159.281z
			 M297.852,159.281c0-1.799,1.463-3.251,3.251-3.251l0,0c1.799,0,3.251,1.452,3.251,3.251l0,0c0,1.798-1.452,3.251-3.251,3.251l0,0
			C299.315,162.532,297.852,161.08,297.852,159.281z M283.592,159.281c0-1.799,1.452-3.251,3.251-3.251l0,0
			c1.799,0,3.251,1.452,3.251,3.251l0,0c0,1.798-1.452,3.251-3.251,3.251l0,0C285.045,162.532,283.592,161.08,283.592,159.281z
			 M269.333,159.281c0-1.799,1.452-3.251,3.251-3.251l0,0c1.788,0,3.251,1.452,3.251,3.251l0,0c0,1.798-1.463,3.251-3.251,3.251l0,0
			C270.785,162.532,269.333,161.08,269.333,159.281z M255.074,159.281c0-1.799,1.452-3.251,3.251-3.251l0,0
			c1.788,0,3.251,1.452,3.251,3.251l0,0c0,1.798-1.463,3.251-3.251,3.251l0,0C256.526,162.532,255.074,161.08,255.074,159.281z
			 M240.803,159.281c0-1.799,1.463-3.251,3.251-3.251l0,0c1.799,0,3.251,1.452,3.251,3.251l0,0c0,1.798-1.452,3.251-3.251,3.251l0,0
			C242.266,162.532,240.803,161.08,240.803,159.281z M226.544,159.281c0-1.799,1.452-3.251,3.251-3.251l0,0
			c1.799,0,3.251,1.452,3.251,3.251l0,0c0,1.798-1.452,3.251-3.251,3.251l0,0C227.995,162.532,226.544,161.08,226.544,159.281z
			 M212.283,159.281c0-1.799,1.452-3.251,3.251-3.251l0,0c1.799,0,3.251,1.452,3.251,3.251l0,0c0,1.798-1.452,3.251-3.251,3.251l0,0
			C213.736,162.532,212.283,161.08,212.283,159.281z M198.024,159.281c0-1.799,1.452-3.251,3.251-3.251l0,0
			c1.788,0,3.251,1.452,3.251,3.251l0,0c0,1.798-1.463,3.251-3.251,3.251l0,0C199.477,162.532,198.024,161.08,198.024,159.281z
			 M183.755,159.281c0-1.799,1.462-3.251,3.251-3.251l0,0c1.798,0,3.251,1.452,3.251,3.251l0,0c0,1.798-1.452,3.251-3.251,3.251l0,0
			C185.216,162.532,183.755,161.08,183.755,159.281z M169.494,159.281c0-1.799,1.452-3.251,3.251-3.251l0,0
			c1.799,0,3.251,1.452,3.251,3.251l0,0c0,1.798-1.452,3.251-3.251,3.251l0,0C170.947,162.532,169.494,161.08,169.494,159.281z
			 M155.235,159.281c0-1.799,1.452-3.251,3.251-3.251l0,0c1.788,0,3.251,1.452,3.251,3.251l0,0c0,1.798-1.463,3.251-3.251,3.251l0,0
			C156.688,162.532,155.235,161.08,155.235,159.281z M140.977,159.281c0-1.799,1.452-3.251,3.251-3.251l0,0
			c1.788,0,3.251,1.452,3.251,3.251l0,0c0,1.798-1.463,3.251-3.251,3.251l0,0C142.427,162.532,140.977,161.08,140.977,159.281z
			 M126.706,159.281c0-1.799,1.463-3.251,3.251-3.251l0,0c1.799,0,3.251,1.452,3.251,3.251l0,0c0,1.798-1.452,3.251-3.251,3.251l0,0
			C128.169,162.532,126.706,161.08,126.706,159.281z M112.447,159.281c0-1.799,1.452-3.251,3.251-3.251l0,0
			c1.798,0,3.251,1.452,3.251,3.251l0,0c0,1.798-1.452,3.251-3.251,3.251l0,0C113.898,162.532,112.447,161.08,112.447,159.281z
			 M98.187,159.281c0-1.799,1.452-3.251,3.251-3.251l0,0c1.799,0,3.251,1.452,3.251,3.251l0,0c0,1.798-1.452,3.251-3.251,3.251l0,0
			C99.639,162.532,98.187,161.08,98.187,159.281z M83.927,159.281c0-1.799,1.452-3.251,3.251-3.251l0,0
			c1.788,0,3.251,1.452,3.251,3.251l0,0c0,1.798-1.462,3.251-3.251,3.251l0,0C85.38,162.532,83.927,161.08,83.927,159.281z
			 M69.657,159.281c0-1.799,1.463-3.251,3.251-3.251l0,0c1.799,0,3.251,1.452,3.251,3.251l0,0c0,1.798-1.452,3.251-3.251,3.251l0,0
			C71.12,162.532,69.657,161.08,69.657,159.281z M55.397,159.281c0-1.799,1.452-3.251,3.251-3.251l0,0
			c1.798,0,3.251,1.452,3.251,3.251l0,0c0,1.798-1.452,3.251-3.251,3.251l0,0C56.849,162.532,55.397,161.08,55.397,159.281z
			 M41.138,159.281c0-1.799,1.452-3.251,3.251-3.251l0,0c1.788,0,3.251,1.452,3.251,3.251l0,0c0,1.798-1.463,3.251-3.251,3.251l0,0
			C42.59,162.532,41.138,161.08,41.138,159.281z"/>
		<path style="fill:#ED4C58;" d="M386.681,162.532c-0.856,0-1.701-0.347-2.297-0.954c-0.607-0.606-0.953-1.441-0.953-2.297
			s0.347-1.69,0.953-2.297c0.748-0.759,1.875-1.105,2.926-0.888c0.217,0.043,0.412,0.097,0.617,0.184
			c0.195,0.076,0.379,0.184,0.553,0.303c0.184,0.119,0.347,0.249,0.498,0.401c0.607,0.607,0.953,1.441,0.953,2.297
			s-0.347,1.69-0.953,2.297c-0.152,0.152-0.314,0.282-0.498,0.401c-0.174,0.12-0.358,0.217-0.553,0.304
			c-0.206,0.076-0.401,0.141-0.617,0.184C387.104,162.51,386.887,162.532,386.681,162.532z"/>
		<path style="fill:#ED4C58;" d="M383.431,203.165c0-1.799,1.452-3.251,3.251-3.251l0,0c1.799,0,3.251,1.452,3.251,3.251l0,0
			c0,1.798-1.452,3.251-3.251,3.251l0,0C384.882,206.416,383.431,204.963,383.431,203.165z M383.431,188.537
			c0-1.799,1.452-3.251,3.251-3.251l0,0c1.799,0,3.251,1.452,3.251,3.251l0,0c0,1.798-1.452,3.251-3.251,3.251l0,0
			C384.882,191.788,383.431,190.335,383.431,188.537z M383.431,173.909c0-1.799,1.452-3.251,3.251-3.251l0,0
			c1.799,0,3.251,1.452,3.251,3.251l0,0c0,1.798-1.452,3.251-3.251,3.251l0,0C384.882,177.16,383.431,175.708,383.431,173.909z"/>
		<path style="fill:#ED4C58;" d="M386.681,221.044c-0.856,0-1.701-0.347-2.297-0.954c-0.607-0.606-0.953-1.441-0.953-2.297
			c0-0.206,0.022-0.423,0.065-0.64c0.043-0.206,0.097-0.412,0.184-0.606c0.076-0.195,0.184-0.379,0.293-0.563
			c0.119-0.174,0.26-0.336,0.412-0.488c1.203-1.214,3.381-1.214,4.594,0c0.152,0.152,0.281,0.314,0.401,0.488
			c0.119,0.184,0.216,0.368,0.303,0.563c0.076,0.195,0.141,0.401,0.184,0.606c0.043,0.217,0.065,0.434,0.065,0.64
			c0,0.856-0.347,1.69-0.953,2.297c-0.152,0.152-0.314,0.282-0.498,0.401c-0.174,0.12-0.358,0.228-0.553,0.304
			c-0.206,0.087-0.401,0.141-0.617,0.184C387.104,221.022,386.887,221.044,386.681,221.044z"/>
		<path style="fill:#ED4C58;" d="M369.171,217.793c0-1.799,1.452-3.251,3.251-3.251l0,0c1.788,0,3.24,1.452,3.24,3.251l0,0
			c0,1.798-1.452,3.251-3.24,3.251l0,0C370.622,221.044,369.171,219.591,369.171,217.793z M354.901,217.793
			c0-1.799,1.463-3.251,3.251-3.251l0,0c1.799,0,3.251,1.452,3.251,3.251l0,0c0,1.798-1.452,3.251-3.251,3.251l0,0
			C356.364,221.044,354.901,219.591,354.901,217.793z M340.642,217.793c0-1.799,1.452-3.251,3.251-3.251l0,0
			c1.798,0,3.251,1.452,3.251,3.251l0,0c0,1.798-1.452,3.251-3.251,3.251l0,0C342.094,221.044,340.642,219.591,340.642,217.793z
			 M326.382,217.793c0-1.799,1.452-3.251,3.251-3.251l0,0c1.788,0,3.251,1.452,3.251,3.251l0,0c0,1.798-1.463,3.251-3.251,3.251l0,0
			C327.834,221.044,326.382,219.591,326.382,217.793z M312.112,217.793c0-1.799,1.463-3.251,3.251-3.251l0,0
			c1.798,0,3.261,1.452,3.261,3.251l0,0c0,1.798-1.463,3.251-3.261,3.251l0,0C313.575,221.044,312.112,219.591,312.112,217.793z
			 M297.852,217.793c0-1.799,1.463-3.251,3.251-3.251l0,0c1.799,0,3.251,1.452,3.251,3.251l0,0c0,1.798-1.452,3.251-3.251,3.251l0,0
			C299.315,221.044,297.852,219.591,297.852,217.793z M283.592,217.793c0-1.799,1.452-3.251,3.251-3.251l0,0
			c1.799,0,3.251,1.452,3.251,3.251l0,0c0,1.798-1.452,3.251-3.251,3.251l0,0C285.045,221.044,283.592,219.591,283.592,217.793z
			 M269.333,217.793c0-1.799,1.452-3.251,3.251-3.251l0,0c1.788,0,3.251,1.452,3.251,3.251l0,0c0,1.798-1.463,3.251-3.251,3.251l0,0
			C270.785,221.044,269.333,219.591,269.333,217.793z M255.074,217.793c0-1.799,1.452-3.251,3.251-3.251l0,0
			c1.788,0,3.24,1.452,3.24,3.251l0,0c0,1.798-1.452,3.251-3.24,3.251l0,0C256.526,221.044,255.074,219.591,255.074,217.793z
			 M240.803,217.793c0-1.799,1.463-3.251,3.251-3.251l0,0c1.799,0,3.251,1.452,3.251,3.251l0,0c0,1.798-1.452,3.251-3.251,3.251l0,0
			C242.266,221.044,240.803,219.591,240.803,217.793z M226.544,217.793c0-1.799,1.452-3.251,3.251-3.251l0,0
			c1.799,0,3.251,1.452,3.251,3.251l0,0c0,1.798-1.452,3.251-3.251,3.251l0,0C227.995,221.044,226.544,219.591,226.544,217.793z
			 M212.283,217.793c0-1.799,1.452-3.251,3.251-3.251l0,0c1.799,0,3.251,1.452,3.251,3.251l0,0c0,1.798-1.452,3.251-3.251,3.251l0,0
			C213.736,221.044,212.283,219.591,212.283,217.793z M198.024,217.793c0-1.799,1.452-3.251,3.251-3.251l0,0
			c1.788,0,3.251,1.452,3.251,3.251l0,0c0,1.798-1.463,3.251-3.251,3.251l0,0C199.477,221.044,198.024,219.591,198.024,217.793z
			 M183.755,217.793c0-1.799,1.462-3.251,3.251-3.251l0,0c1.798,0,3.251,1.452,3.251,3.251l0,0c0,1.798-1.452,3.251-3.251,3.251l0,0
			C185.216,221.044,183.755,219.591,183.755,217.793z M169.494,217.793c0-1.799,1.452-3.251,3.251-3.251l0,0
			c1.799,0,3.251,1.452,3.251,3.251l0,0c0,1.798-1.452,3.251-3.251,3.251l0,0C170.947,221.044,169.494,219.591,169.494,217.793z
			 M155.235,217.793c0-1.799,1.452-3.251,3.251-3.251l0,0c1.788,0,3.251,1.452,3.251,3.251l0,0c0,1.798-1.463,3.251-3.251,3.251l0,0
			C156.688,221.044,155.235,219.591,155.235,217.793z M140.977,217.793c0-1.799,1.452-3.251,3.251-3.251l0,0
			c1.788,0,3.251,1.452,3.251,3.251l0,0c0,1.798-1.463,3.251-3.251,3.251l0,0C142.427,221.044,140.977,219.591,140.977,217.793z
			 M126.706,217.793c0-1.799,1.463-3.251,3.251-3.251l0,0c1.799,0,3.251,1.452,3.251,3.251l0,0c0,1.798-1.452,3.251-3.251,3.251l0,0
			C128.169,221.044,126.706,219.591,126.706,217.793z M112.447,217.793c0-1.799,1.452-3.251,3.251-3.251l0,0
			c1.798,0,3.251,1.452,3.251,3.251l0,0c0,1.798-1.452,3.251-3.251,3.251l0,0C113.898,221.044,112.447,219.591,112.447,217.793z
			 M98.187,217.793c0-1.799,1.452-3.251,3.251-3.251l0,0c1.799,0,3.251,1.452,3.251,3.251l0,0c0,1.798-1.452,3.251-3.251,3.251l0,0
			C99.639,221.044,98.187,219.591,98.187,217.793z M83.927,217.793c0-1.799,1.452-3.251,3.251-3.251l0,0
			c1.788,0,3.251,1.452,3.251,3.251l0,0c0,1.798-1.462,3.251-3.251,3.251l0,0C85.38,221.044,83.927,219.591,83.927,217.793z
			 M69.657,217.793c0-1.799,1.463-3.251,3.251-3.251l0,0c1.799,0,3.251,1.452,3.251,3.251l0,0c0,1.798-1.452,3.251-3.251,3.251l0,0
			C71.12,221.044,69.657,219.591,69.657,217.793z M55.397,217.793c0-1.799,1.452-3.251,3.251-3.251l0,0
			c1.798,0,3.251,1.452,3.251,3.251l0,0c0,1.798-1.452,3.251-3.251,3.251l0,0C56.849,221.044,55.397,219.591,55.397,217.793z
			 M41.138,217.793c0-1.799,1.452-3.251,3.251-3.251l0,0c1.788,0,3.251,1.452,3.251,3.251l0,0c0,1.798-1.463,3.251-3.251,3.251l0,0
			C42.59,221.044,41.138,219.591,41.138,217.793z"/>
	</g>
	<g>
		<path style="fill:#F9C032;" d="M96.152,190.369c0.238,0,0.501,0.244,0.369,0.652c-0.422,1.262-1.953,12.787-18.313,12.787
			c-16.836,0-21.031-7.819-21.031-14.701c0-6.841,4.354-15.841,18.709-15.841c5.198,0,8.391,1.425,11.109,3.706l0.185-2.688
			c0.026-0.448,0.211-0.733,0.343-0.733h8.629c0.316,0,0.501,0.163,0.501,0.896v11.606c0,0.407-0.079,0.651-0.396,0.733h-8.312
			c-0.238,0-0.29,0-0.502-0.367c-0.185-0.366-2.032-5.456-7.758-5.456c-5.753,0-6.94,5.131-6.94,7.411
			c0,1.791,0.633,7.859,7.758,7.859c5.726,0,8.286-3.95,8.972-5.579c0.106-0.244,0.264-0.285,0.502-0.285L96.152,190.369
			L96.152,190.369z"/>
		<path style="fill:#F9C032;" d="M103.53,174.04c0-0.53,0.185-0.774,0.422-0.774h25.728c0.238,0,0.554,0.081,0.554,0.367v6.76
			c0,0.407-0.185,0.57-0.396,0.57h-5.99v15.23h5.99c0.263,0,0.396,0.163,0.396,0.448v6.475c0,0.488-0.053,0.692-0.396,0.692h-25.754
			c-0.422,0-0.554-0.285-0.554-0.57v-6.353c0-0.57,0.185-0.774,0.343-0.774h5.99v-15.189h-5.831c-0.29,0-0.502-0.163-0.502-0.407
			V174.04z"/>
		<path style="fill:#F9C032;" d="M160.676,173.266c0.264,0,0.554,0.204,0.818,0.489l13.563,17.714v-10.506h-5.805
			c-0.396,0-0.607-0.204-0.607-0.53v-6.271c0-0.489,0.185-0.896,0.37-0.896h18.841c0.475,0,0.58,0.611,0.58,1.018v5.945
			c0,0.53-0.264,0.733-0.607,0.733h-5.621v21.746c0,0.692-0.132,1.099-0.475,1.099h-16.254c-0.185,0-0.475-0.041-0.66-0.285
			l-14.856-19.424v12.013h6.095c0.317,0,0.66,0.204,0.66,0.611v6.19c0,0.611-0.211,0.896-0.527,0.896h-19.237
			c-0.264,0-0.396-0.285-0.396-0.814v-6.149c0-0.325,0.132-0.733,0.66-0.733h5.726v-15.148h-5.911c-0.185,0-0.449-0.122-0.449-0.733
			v-6.353c0-0.407,0.264-0.611,0.66-0.611h23.432V173.266z"/>
		<path style="fill:#F9C032;" d="M239.245,173.266c0.475,0,0.607,0.285,0.607,0.896v11.606c0,0.407-0.079,0.692-0.343,0.692h-9.077
			c-0.185,0-0.343,0-0.343-0.285v-5.132h-15.252v3.869h8.497c0.264,0,0.369,0.081,0.369,0.407v6.393
			c0,0.326-0.316,0.407-0.633,0.407h-8.233v4.113H230.3v-4.968c0-0.367,0.079-0.815,0.502-0.815h9.658
			c0.185,0,0.29,0.204,0.29,0.774v12.013c0,0.285-0.106,0.57-0.607,0.57h-44.754c-0.343,0-0.659,0.041-0.659-0.448v-6.434
			c0-0.366,0.158-0.692,0.396-0.692h5.99v-15.23H195.1c-0.211,0-0.369,0.081-0.369-0.407v-6.964c0-0.204,0.263-0.367,0.659-0.367
			h43.856V173.266z"/>
		<path style="fill:#F9C032;" d="M247.467,203.808c-0.264,0-0.396-0.285-0.396-0.814v-6.068c0-0.285,0.132-0.814,0.659-0.814h5.726
			v-15.148H247.6c-0.211,0-0.502-0.122-0.502-0.733v-6.353c0-0.407,0.211-0.611,0.581-0.611h25.807c0.528,0,0.739,0.407,0.95,0.693
			l2.929,6.19l2.56-6.271c0.211-0.326,0.422-0.611,0.818-0.611h24.488c0.316,0,0.449,0.285,0.449,0.693v6.475
			c0,0.407-0.185,0.53-0.449,0.53h-5.7v15.148h5.831c0.264,0,0.528,0.204,0.528,0.936v6.149c0,0.407-0.264,0.611-0.66,0.611h-24.91
			c-0.264,0-0.528-0.204-0.528-0.692v-6.475c0-0.325,0.264-0.529,0.528-0.529h5.779v-15.76h-0.079l-10.872,22.967
			c-0.185,0.285-0.448,0.489-0.792,0.489h-2.48c-0.264,0-0.528-0.081-0.713-0.611l-10.37-22.438h-0.052v15.352h5.7
			c0.316,0,0.449,0.204,0.449,0.733v6.475c0,0.407-0.396,0.489-0.713,0.489h-18.709V203.808z"/>
		<path style="fill:#F9C032;" d="M333.529,203.808c-0.396,0-0.607-0.367-0.607-0.774v-5.946c0-0.367,0.159-0.611,0.422-0.611h4.46
			l-1.557-3.502h-8.181l-1.557,3.502h4.934c0.29,0,0.422,0.244,0.422,0.488v6.068c0,0.488-0.105,0.774-0.369,0.774h-17.944
			c-0.607,0-1.056-0.081-1.056-0.651v-6.231c0-0.448,0.132-0.692,0.528-0.692h5.409l10.239-22.112
			c0.263-0.611,0.607-0.856,0.923-0.856h12.139c0.527,0,0.844,0.448,0.976,0.856l10.634,22.519h5.831
			c0.449,0,0.449,0.733,0.449,1.344v5.172c0,0.488-0.264,0.651-0.739,0.651h-25.356V203.808z M329.756,189.229h4.697l-2.058-4.805
			c-0.079-0.122-0.343-0.122-0.396,0L329.756,189.229z"/>
	</g>
</g>
<g>
</g>
<g>
</g>
<g>
</g>
<g>
</g>
<g>
</g>
<g>
</g>
<g>
</g>
<g>
</g>
<g>
</g>
<g>
</g>
<g>
</g>
<g>
</g>
<g>
</g>
<g>
</g>
<g>
</g>
</svg>
