<?xml version="1.0" encoding="iso-8859-1"?>
<!-- Generator: Adobe Illustrator 18.0.0, SVG Export Plug-In . SVG Version: 6.00 Build 0)  -->
<!DOCTYPE svg PUBLIC "-//W3C//DTD SVG 1.1//EN" "http://www.w3.org/Graphics/SVG/1.1/DTD/svg11.dtd">
<svg version="1.1" id="Capa_1" xmlns="http://www.w3.org/2000/svg" xmlns:xlink="http://www.w3.org/1999/xlink" x="0px" y="0px"
	 viewBox="0 0 406.79 406.79" style="enable-background:new 0 0 406.79 406.79;" xml:space="preserve">
<g>
	<g>
		<path style="fill:none;" d="M382.79,56.814H24v234.305h127.016h104.758H382.79V56.814z M342.95,99.718H66.905v155.615
			c0,6.629-5.373,12-12,12c-6.628,0-12-5.371-12-12V87.718c0-6.627,5.372-12,12-12H342.95c6.627,0,12,5.373,12,12
			C354.95,94.347,349.577,99.718,342.95,99.718z"/>
		<rect x="163.016" y="315.119" style="fill:#73D0F4;" width="80.758" height="34.857"/>
		<path style="fill:#3D6889;" d="M394.79,315.119c6.627,0,12-5.373,12-12V44.814c0-6.627-5.373-12-12-12H12c-6.627,0-12,5.373-12,12
			v258.305c0,6.627,5.373,12,12,12h127.016v34.857H12c-6.627,0-12,5.373-12,12c0,6.627,5.373,12,12,12h139.016h104.758H394.79
			c6.627,0,12-5.373,12-12c0-6.627-5.373-12-12-12H267.774v-34.857H394.79z M243.773,349.976h-80.758v-34.857h80.758V349.976z
			 M255.773,291.119H151.016H24V56.814h358.79v234.305H255.773z"/>
		<path style="fill:#3D6889;" d="M342.95,75.718H54.905c-6.628,0-12,5.373-12,12v167.615c0,6.629,5.372,12,12,12
			c6.627,0,12-5.371,12-12V99.718H342.95c6.627,0,12-5.371,12-12C354.95,81.091,349.577,75.718,342.95,75.718z"/>
	</g>
</g>
<g>
</g>
<g>
</g>
<g>
</g>
<g>
</g>
<g>
</g>
<g>
</g>
<g>
</g>
<g>
</g>
<g>
</g>
<g>
</g>
<g>
</g>
<g>
</g>
<g>
</g>
<g>
</g>
<g>
</g>
</svg>
