<?xml version="1.0" encoding="iso-8859-1"?>
<!-- Generator: Adobe Illustrator 19.0.0, SVG Export Plug-In . SVG Version: 6.00 Build 0)  -->
<svg version="1.1" id="Layer_1" xmlns="http://www.w3.org/2000/svg" xmlns:xlink="http://www.w3.org/1999/xlink" x="0px" y="0px"
	 viewBox="0 0 455 455" style="enable-background:new 0 0 455 455;" xml:space="preserve">
<g>
	<path style="fill:#46F8FF;" d="M285.784,111.716V0H227.5l0,455h170V111.716H285.784z M258.106,361.106l-21.213-21.213
		l59.393-59.394l-59.393-59.394l21.213-21.213l80.607,80.606L258.106,361.106z"/>
	<path style="fill:#9BFBFF;" d="M57.5,0v455h170l0-455H57.5z M218.106,339.894l-21.213,21.213L116.287,280.5l80.607-80.606
		l21.213,21.213L158.713,280.5L218.106,339.894z"/>
	<polygon style="fill:#00D7DF;" points="397.5,111.716 285.784,0 285.784,111.716 	"/>
	<polygon style="fill:#005ECE;" points="196.894,199.894 116.287,280.5 196.894,361.106 218.106,339.894 158.713,280.5 
		218.106,221.106 	"/>
	<polygon style="fill:#005ECE;" points="236.894,221.106 296.287,280.5 236.894,339.894 258.106,361.106 338.713,280.5 
		258.106,199.894 	"/>
</g>
<g>
</g>
<g>
</g>
<g>
</g>
<g>
</g>
<g>
</g>
<g>
</g>
<g>
</g>
<g>
</g>
<g>
</g>
<g>
</g>
<g>
</g>
<g>
</g>
<g>
</g>
<g>
</g>
<g>
</g>
</svg>
