<?xml version="1.0" encoding="iso-8859-1"?>
<!-- Generator: Adobe Illustrator 19.0.0, SVG Export Plug-In . SVG Version: 6.00 Build 0)  -->
<svg version="1.1" id="Layer_1" xmlns="http://www.w3.org/2000/svg" xmlns:xlink="http://www.w3.org/1999/xlink" x="0px" y="0px"
	 viewBox="0 0 339.896 339.896" style="enable-background:new 0 0 339.896 339.896;" xml:space="preserve">
<g id="XMLID_1328_">
	<circle id="XMLID_1329_" style="fill:#FFE165;" cx="251.948" cy="20" r="20"/>
	<circle id="XMLID_1330_" style="fill:#FFE165;" cx="300.757" cy="49.486" r="20"/>
	<g id="XMLID_1331_">
		<g id="XMLID_1332_">
			<circle id="XMLID_1333_" style="fill:#FFE165;" cx="75.618" cy="105.886" r="24"/>
			<circle id="XMLID_1334_" style="fill:#FFE165;" cx="43.948" cy="116" r="24"/>
			<circle id="XMLID_1335_" style="fill:#FFE165;" cx="115.218" cy="113.086" r="24"/>
			<circle id="XMLID_1336_" style="fill:#FFE165;" cx="139.217" cy="89.086" r="24"/>
			<circle id="XMLID_1337_" style="fill:#FFE165;" cx="210.551" cy="65.086" r="24"/>
			<circle id="XMLID_1338_" style="fill:#FFE165;" cx="147.617" cy="76" r="24"/>
			<circle id="XMLID_1339_" style="fill:#FFE165;" cx="164.448" cy="104" r="24"/>
			<circle id="XMLID_1340_" style="fill:#FFE165;" cx="255.948" cy="100" r="24"/>
			<circle id="XMLID_1341_" style="fill:#FFE165;" cx="234.551" cy="81.886" r="24"/>
			<circle id="XMLID_1342_" style="fill:#FFE165;" cx="108.821" cy="65.086" r="24"/>
			<circle id="XMLID_1343_" style="fill:#FFE165;" cx="171.617" cy="113.086" r="24"/>
			<circle id="XMLID_1344_" style="fill:#FFE165;" cx="63.948" cy="73.486" r="24"/>
			<circle id="XMLID_1345_" style="fill:#FFE165;" cx="132.82" cy="129.886" r="24"/>
			<circle id="XMLID_1346_" style="fill:#FFE165;" cx="219.617" cy="161.086" r="24"/>
			<circle id="XMLID_1347_" style="fill:#FFE165;" cx="108.821" cy="153.886" r="24"/>
			<circle id="XMLID_1348_" style="fill:#FFE165;" cx="195.617" cy="97.486" r="24"/>
			<circle id="XMLID_1349_" style="fill:#FFE165;" cx="171.617" cy="145.486" r="24"/>
			<circle id="XMLID_1350_" style="fill:#FFE165;" cx="104.418" cy="92" r="24"/>
			<circle id="XMLID_1351_" style="fill:#FFE165;" cx="204.018" cy="129.886" r="24"/>
			<circle id="XMLID_1352_" style="fill:#FFE165;" cx="255.948" cy="137.086" r="24"/>
			<circle id="XMLID_1353_" style="fill:#FFE165;" cx="51.618" cy="161.086" r="24"/>
			<circle id="XMLID_1354_" style="fill:#FFE165;" cx="228.018" cy="97.486" r="24"/>
			<circle id="XMLID_1355_" style="fill:#FFE165;" cx="231.948" cy="120" r="24"/>
			<circle id="XMLID_1356_" style="fill:#FFE165;" cx="177.612" cy="86.419" r="24"/>
			<circle id="XMLID_1357_" style="fill:#FFE165;" cx="75.618" cy="137.086" r="24"/>
			<path id="XMLID_1360_" style="fill:#5FD2DB;" d="M280.471,164.797c-2.49-22.257-21.497-39.711-44.39-39.711l0,0
				c-20.493,0-37.862,13.99-43.067,32.887c-5.205-18.897-22.574-32.887-43.067-32.887l0,0c-20.493,0-37.862,13.99-43.067,32.887
				c-5.205-18.897-22.574-32.887-43.067-32.887l0,0c-22.893,0-41.9,17.454-44.39,39.711H19.14v4.964l29.856,170.135h201.905
				l29.856-170.135v-4.964H280.471z"/>
		</g>
		<circle id="XMLID_1361_" style="fill:#FFFEB9;" cx="149.948" cy="235.32" r="40.67"/>
		<rect id="XMLID_580_" x="90.583" y="211.63" style="fill:#FFFEB9;" width="118.73" height="47.38"/>
	</g>
</g>
<g>
</g>
<g>
</g>
<g>
</g>
<g>
</g>
<g>
</g>
<g>
</g>
<g>
</g>
<g>
</g>
<g>
</g>
<g>
</g>
<g>
</g>
<g>
</g>
<g>
</g>
<g>
</g>
<g>
</g>
</svg>
